HIERARCHY
ROOT Hips
{
	OFFSET 0.000000 88.474243 0.000000
	CHANNELS 6 Xposition Yposition Zposition Zrotation Yrotation Xrotation 
	JOINT Hips_Spine
	{
		OFFSET 0.000000 0.000000 0.000000
		CHANNELS 3 Zrotation Yrotation Xrotation
		JOINT Spine
		{
			OFFSET 0.005100 8.711998 -0.691000
			CHANNELS 3 Zrotation Yrotation Xrotation
			JOINT Spine1
			{
				OFFSET -0.009200 8.660301 -1.275000
				CHANNELS 3 Zrotation Yrotation Xrotation
				JOINT Spine2
				{
					OFFSET 0.006300 9.852501 -1.857000
					CHANNELS 3 Zrotation Yrotation Xrotation
					JOINT Spine2_Neck
					{
						OFFSET 0.000000 0.000000 0.000000
						CHANNELS 3 Zrotation Yrotation Xrotation
						JOINT Neck
						{
							OFFSET 0.016300 11.420799 -0.263300
							CHANNELS 3 Zrotation Yrotation Xrotation
							End Site #name: Head
							{
								OFFSET -0.019200 9.262405 2.362500
							}
						}
					}
					JOINT Spine2_LeftShoulder
					{
						OFFSET 0.000000 0.000000 0.000000
						CHANNELS 3 Zrotation Yrotation Xrotation
						JOINT LeftShoulder
						{
							OFFSET 5.616900 6.732201 -0.345700
							CHANNELS 3 Zrotation Yrotation Xrotation
							JOINT LeftArm
							{
								OFFSET 10.664888 -0.183372 -2.440700
								CHANNELS 3 Zrotation Yrotation Xrotation
								JOINT LeftForeArm
								{
									OFFSET 27.459126 0.000000 0.000000
									CHANNELS 3 Zrotation Yrotation Xrotation
									End Site #name: LeftHand
									{
										OFFSET 21.306858 0.000000 0.000000
									}
								}
							}
						}
					}
					JOINT Spine2_RightShoulder
					{
						OFFSET 0.000000 0.000000 0.000000
						CHANNELS 3 Zrotation Yrotation Xrotation
						JOINT RightShoulder
						{
							OFFSET -5.580300 6.737503 -0.344400
							CHANNELS 3 Zrotation Yrotation Xrotation
							JOINT RightArm
							{
								OFFSET -10.679335 -0.188484 -2.383900
								CHANNELS 3 Zrotation Yrotation Xrotation
								JOINT RightForeArm
								{
									OFFSET -27.503529 0.000000 0.000000
									CHANNELS 3 Zrotation Yrotation Xrotation
									End Site #name: RightHand
									{
										OFFSET -21.306808 0.000000 0.000000
									}
								}
							}
						}
					}
				}
			}
		}
	}
	JOINT Hips_LeftUpLeg
	{
		OFFSET 0.000000 0.000000 0.000000
		CHANNELS 3 Zrotation Yrotation Xrotation
		JOINT LeftUpLeg
		{
			OFFSET 6.857700 -6.739601 0.312100
			CHANNELS 3 Zrotation Yrotation Xrotation
			JOINT LeftLeg
			{
				OFFSET -0.367590 -34.731552 -4.572400
				CHANNELS 3 Zrotation Yrotation Xrotation
				End Site #name: LeftFoot
				{
					OFFSET 0.367590 -34.656704 -6.067400
				}
			}
		}
	}
	JOINT Hips_RightUpLeg
	{
		OFFSET 0.000000 0.000000 0.000000
		CHANNELS 3 Zrotation Yrotation Xrotation
		JOINT RightUpLeg
		{
			OFFSET -6.876100 -6.733299 0.301000
			CHANNELS 3 Zrotation Yrotation Xrotation
			JOINT RightLeg
			{
				OFFSET 0.347353 -34.795158 -4.515900
				CHANNELS 3 Zrotation Yrotation Xrotation
				End Site #name: RightFoot
				{
					OFFSET -0.347353 -34.589367 -6.070300
				}
			}
		}
	}
}
MOTION
Frames: 6
Frame Time: 0.041667
0.031412 -0.020834 -0.073825 -179.838584 50.160953 -175.605952 -0.000000 -0.000000 0.000000 -3.860099 3.661553 -0.858444 0.939851 -0.306129 0.411862 0.000000 0.000000 0.000000 0.253781 -0.889257 -3.065015 -1.579751 -8.937591 -0.756311 0.508205 -0.039115 -1.249680 -3.258352 -7.694997 1.588560 -78.330395 -8.741395 9.280428 0.716860 -16.880438 3.655888 0.205535 -0.431616 -1.773720 18.330869 12.502564 4.574614 51.591695 11.115814 -10.136143 -6.976203 69.744551 -0.443632 0.000000 -0.000000 0.000000 -8.764244 18.026742 -15.482376 -8.082076 -39.783730 1.083304 -0.000000 -0.000000 -0.000000 -8.770475 -30.584115 -7.578293 -14.574218 -10.173225 14.710489 
-0.264231 -0.197135 -0.127322 177.745216 54.003776 -176.672694 -0.000000 -0.000000 0.000000 -5.962408 2.346686 1.577272 1.168717 -0.545587 -0.784229 0.000000 0.000000 0.000000 1.079786 -0.613972 -3.120713 -0.188425 -17.592050 0.061535 0.600075 -0.278347 -1.951193 -2.132560 -9.241188 1.853549 -84.240091 -15.446688 5.319526 -1.189823 -13.594523 1.709130 0.877216 -0.772843 -0.754840 23.746704 15.436264 4.621074 50.593864 9.746374 -11.468132 -2.339294 52.063171 3.167157 -0.000000 -0.000000 -0.000000 -6.957769 18.933407 -13.368927 -4.673368 -38.281834 -5.069686 -0.000000 -0.000000 -0.000000 -9.000266 -37.272784 -6.525528 -12.371103 -5.934441 14.222005 
-0.322050 -0.271533 -0.164128 176.668219 42.412817 -177.580034 -0.000000 -0.000000 0.000000 -6.869676 -0.306947 2.393708 1.343212 -0.558702 -1.481197 0.000000 0.000000 0.000000 1.462745 -0.794195 -3.439982 -0.887616 -27.389500 0.054314 0.616133 -0.242213 -2.532152 -0.867386 -8.288381 1.205557 -85.673818 -16.723512 0.091817 -0.943418 -8.007333 1.970345 1.169864 -0.930505 -2.298421 25.339474 17.294774 5.526392 51.455970 9.486724 -6.633922 -0.104282 48.003804 6.359117 -0.000000 0.000000 -0.000000 -5.508335 19.708355 -11.928301 -3.203696 -36.756477 -7.840995 -0.000000 -0.000000 -0.000000 -9.391807 -42.868684 -4.371582 -12.356203 -5.683656 15.350577 
-0.209513 -0.316214 -0.190378 177.018439 29.353433 -178.028590 -0.000000 -0.000000 0.000000 -6.845600 -1.211505 2.987631 1.001015 -1.024278 -2.033591 0.000000 0.000000 0.000000 1.365645 -1.077279 -3.482843 -1.558873 -32.511008 0.115299 0.463923 -0.472701 -2.997354 -0.479420 -7.402280 0.875522 -86.733460 -17.830864 -1.682052 -0.667560 -5.190347 2.048707 0.911809 -1.360177 -2.580049 23.970111 16.786481 5.532519 51.940299 10.273805 -4.217774 1.753959 47.034500 7.761640 -0.000000 0.000000 -0.000000 -4.962222 20.447151 -10.555004 -2.318692 -37.595290 -9.121817 -0.000000 -0.000000 -0.000000 -10.204320 -49.859030 -3.031313 -12.829050 -4.889532 16.619954 
-0.044734 -0.329274 -0.254146 176.825652 17.353032 -178.503431 -0.000000 -0.000000 0.000000 -6.333523 -1.363140 3.041603 0.553765 -1.304926 -2.342707 0.000000 0.000000 0.000000 1.136459 -1.312463 -3.206985 -1.497774 -34.084615 -0.132318 0.196258 -0.734958 -3.123163 -0.507573 -6.557588 0.704896 -87.460565 -18.708840 -1.326931 0.055192 -3.844972 2.779571 0.555526 -1.597529 -2.440776 21.543516 15.437683 5.139490 52.578024 10.535486 -1.893987 2.689535 47.603520 7.656646 -0.000000 0.000000 -0.000000 -4.668846 20.999156 -9.743026 -1.958922 -38.530736 -9.927977 -0.000000 -0.000000 -0.000000 -10.742188 -55.069327 -2.304334 -13.787359 -4.221605 17.698530 
0.130620 -0.318912 -0.355130 176.359406 7.669371 -178.780131 -0.000000 -0.000000 0.000000 -5.759598 -1.148892 3.065929 0.192056 -1.473638 -2.220193 0.000000 0.000000 0.000000 0.906841 -1.428641 -2.612837 -0.879783 -33.264831 -1.033618 -0.047860 -0.879989 -2.827499 -0.665059 -5.722544 0.614455 -87.896954 -18.825261 -0.686682 0.996339 -3.448331 3.640563 0.242690 -1.698990 -1.925307 19.392282 14.005305 5.053464 53.399613 9.785242 0.278166 2.245513 48.299386 6.766152 -0.000000 0.000000 -0.000000 -4.709365 21.152821 -9.381759 -1.810132 -39.260473 -10.449479 -0.000000 -0.000000 -0.000000 -10.756437 -58.538973 -2.235024 -14.830739 -3.990678 18.481907 
